<?xml version="1.0" encoding="UTF-8"?>
<svg version="1.1" xmlns="http://www.w3.org/2000/svg" width="200" height="149">
<path d="M0 0 C2.63771685 0.77117606 5.05318579 0.52534579 7.7734375 0.3984375 C13.09558707 0.89040091 18.38876868 3.15857481 23.09765625 5.61328125 C23.59265625 7.09828125 23.59265625 7.09828125 24.09765625 8.61328125 C24.75765625 8.61328125 25.41765625 8.61328125 26.09765625 8.61328125 C26.10152344 10.16789062 26.10152344 10.16789062 26.10546875 11.75390625 C26.14299846 13.12374077 26.18214609 14.49353163 26.22265625 15.86328125 C26.22007812 16.54519531 26.2175 17.22710937 26.21484375 17.9296875 C26.24545216 20.2396758 26.24545216 20.2396758 27.09765625 23.61328125 C29.97375937 25.87622336 29.97375937 25.87622336 33.09765625 27.61328125 C34.375 29.7265625 34.375 29.7265625 35.03515625 31.92578125 C35.38900391 33.00279297 35.38900391 33.00279297 35.75 34.1015625 C36.09765625 36.61328125 36.09765625 36.61328125 35.62109375 39.93359375 C35.05597212 43.90631449 35.27570275 47.20204391 35.78515625 51.17578125 C35.93339844 52.43519531 36.08164063 53.69460937 36.234375 54.9921875 C37.18235257 58.96854588 38.80986368 61.26649095 41.09765625 64.61328125 C43.54049441 73.32349151 44.11366307 82.57326419 40.72265625 91.05078125 C38.87987665 93.95670292 37.46358396 96.09093262 34.1875 97.34375 C25.82217516 99.1200531 16.73093892 100.32017841 9.09765625 95.61328125 C5.78297944 91.78865416 4.57508066 88.62623758 4.09765625 83.61328125 C2.92203125 83.90203125 1.74640625 84.19078125 0.53515625 84.48828125 C-0.19960937 84.66875 -0.934375 84.84921875 -1.69140625 85.03515625 C-3.59397747 85.53264837 -5.47085072 86.12661081 -7.33984375 86.73828125 C-14.98892381 88.61700267 -20.4258115 87.83753172 -27.54296875 84.48828125 C-30.14696068 83.52256239 -32.1475912 83.45698323 -34.90234375 83.61328125 C-35.10988281 84.28875 -35.31742188 84.96421875 -35.53125 85.66015625 C-37.03337566 90.00940711 -38.28790863 93.026775 -41.65234375 96.23828125 C-48.01153876 99.14139201 -57.77479423 98.82497946 -64.390625 96.8828125 C-68.08988808 94.94208562 -70.24465708 92.38912312 -71.90234375 88.61328125 C-72.87194643 84.68519124 -73.07934129 80.91702556 -73.18359375 76.87890625 C-73.22097656 75.58210938 -73.25835937 74.2853125 -73.296875 72.94921875 C-73.33247559 71.58725113 -73.36762889 70.22527174 -73.40234375 68.86328125 C-73.59398979 58.65172551 -73.59398979 58.65172551 -74.53125 48.4921875 C-75.05509219 43.01665805 -73.71728704 39.27134216 -70.90234375 34.61328125 C-67.87171068 32.07744542 -65.61917531 30.8522251 -61.90234375 29.61328125 C-59.89042504 25.75039732 -58.75445316 22.18632831 -57.90234375 17.92578125 C-56.61486957 11.84142746 -56.61486957 11.84142746 -53.90234375 9.61328125 C-50.71484375 9.36328125 -50.71484375 9.36328125 -47.90234375 9.61328125 C-47.57234375 8.62328125 -47.24234375 7.63328125 -46.90234375 6.61328125 C-41.84878385 3.24424132 -36.72367209 1.26265761 -30.90234375 -0.38671875 C-29.8865625 -0.67933594 -28.87078125 -0.97195312 -27.82421875 -1.2734375 C-17.70016654 -3.92440378 -9.76295416 -3.63312756 0 0 Z " fill="#FCFCFC" transform="translate(119.90234375,50.38671875)"/>
<path d="M0 0 C6.23267611 4.33193091 8.5832844 9.56132258 10.3125 16.8125 C11.86535856 25.94778502 10.56579288 34.8922587 6 43 C1.44099763 49.04009959 -4.28658941 53.01378855 -11.70703125 54.56640625 C-17.73630222 55.34996404 -21.51068332 54.85022212 -27 52 C-32.13249887 50.31648993 -37.03704934 49.5287536 -42.375 49 C-57.18902502 47.37896886 -57.18902502 47.37896886 -63.3125 44.375 C-67.77297213 42.7117731 -71.29882759 42.95277386 -76.00390625 43.09375 C-79.7006364 42.97807657 -82.54757943 41.9835113 -85.96875 40.67578125 C-89.69504591 39.43607126 -93.38525099 39.20883784 -96.9453125 40.953125 C-97.96238281 41.47132812 -97.96238281 41.47132812 -99 42 C-105.4675563 44.02359123 -112.27850899 44.34158808 -119 44.75 C-120.27435913 44.83519897 -120.27435913 44.83519897 -121.57446289 44.92211914 C-122.37489014 44.96328857 -123.17531738 45.00445801 -124 45.046875 C-124.721875 45.08651367 -125.44375 45.12615234 -126.1875 45.16699219 C-128 45 -128 45 -130 43 C-129.34 42.67 -128.68 42.34 -128 42 C-130.64247092 41.212881 -132.29273529 40.78982418 -135 41 C-137.15192319 42.14781101 -137.15192319 42.14781101 -139.25 43.75 C-148.41752827 50.38642619 -158.94961039 51.04849113 -170 50 C-175.57744805 48.80483256 -179.69383116 47.14289774 -184 43.375 C-189.15528429 34.67545776 -190.32429926 25.7801683 -188 16 C-185.58710378 8.72732689 -180.53909319 3.02779048 -173.75 -0.5 C-167.10054048 -3.46752739 -159.53505799 -4.36334298 -152.4921875 -2.24609375 C-150.24540104 -1.27502502 -148.1305995 -0.20316207 -146 1 C-144.948125 1.5775 -143.89625 2.155 -142.8125 2.75 C-140.15598134 4.87521492 -138.99131081 6.45064334 -137.1875 9.25 C-135.1011877 12.21490935 -135.1011877 12.21490935 -131.8671875 13.5859375 C-125.4307354 13.69502991 -119.65519299 11.9224867 -114 8.9375 C-110.24415771 7.03079846 -107.29512464 6 -103 6 C-100.45986276 6.91021584 -98.021508 7.98288572 -95.55078125 9.06640625 C-89.45861461 11.2961579 -82.90091726 10.46765631 -77 8 C-75.71871206 6.91076807 -74.47090188 5.78151355 -73.25 4.625 C-67.89168745 -0.34909247 -61.21463105 -3.0866013 -53.875 -3.4375 C-49.99843 -2.99982274 -46.87205814 -2.10104936 -43.2734375 -0.65625 C-37.98936767 0.86904851 -33.75707923 -0.21729082 -28.6875 -2 C-18.19960718 -5.31820338 -10.22454549 -4.29113049 0 0 Z M-137 25 C-137 25.33 -137 25.66 -137 26 C-135.02 26 -133.04 26 -131 26 C-131 25.67 -131 25.34 -131 25 C-132.98 25 -134.96 25 -137 25 Z " fill="#FEFEFE" transform="translate(189,4)"/>
<path d="" fill="#FFFFFF" transform="translate(0,0)"/>
</svg>
